<svg width="88" height="32" viewBox="0 0 88 32" fill="none" xmlns="http://www.w3.org/2000/svg">
<path fill-rule="evenodd" clip-rule="evenodd" d="M22.2472 4.94382C23.6123 4.94382 24.7191 3.83718 24.7191 2.47186C24.7191 1.10653 23.6123 0 22.2472 0C20.8821 0 19.7753 1.10653 19.7753 2.47186C19.7753 3.83718 20.8821 4.94382 22.2472 4.94382Z" fill="white"/>
<path fill-rule="evenodd" clip-rule="evenodd" d="M34.1124 4.94382C35.4775 4.94382 36.5843 3.83718 36.5843 2.47186C36.5843 1.10653 35.4775 0 34.1124 0C32.7472 0 31.6404 1.10653 31.6404 2.47186C31.6404 3.83718 32.7472 4.94382 34.1124 4.94382Z" fill="white"/>
<path fill-rule="evenodd" clip-rule="evenodd" d="M85.5281 4.94382C86.8932 4.94382 88 3.83718 88 2.47186C88 1.10653 86.8932 0 85.5281 0C84.163 0 83.0562 1.10653 83.0562 2.47186C83.0562 3.83718 84.163 4.94382 85.5281 4.94382Z" fill="white"/>
<mask id="mask0" mask-type="alpha" maskUnits="userSpaceOnUse" x="0" y="0" width="88" height="32">
<path fill-rule="evenodd" clip-rule="evenodd" d="M0 31.6404H88V0H0V31.6404Z" fill="white"/>
</mask>
<g mask="url(#mask0)">
<path fill-rule="evenodd" clip-rule="evenodd" d="M83.0562 31.6405H88V6.92139H83.0562V31.6405Z" fill="white"/>
<path fill-rule="evenodd" clip-rule="evenodd" d="M31.518 11.5584V23.2562C31.518 23.4906 31.492 23.7191 31.4445 23.94C31.1537 25.4638 29.8037 26.6171 28.1798 26.6171C26.4389 26.6171 25.0129 25.2919 24.8694 23.6052C24.857 23.4904 24.8501 23.3741 24.8501 23.2562V6.92139H19.7753V23.3212C19.7753 27.8967 23.5574 31.6405 28.1798 31.6405C32.8023 31.6405 36.5843 27.8967 36.5843 23.3212V6.92139H31.518V11.5584Z" fill="white"/>
<path fill-rule="evenodd" clip-rule="evenodd" d="M8.42454 6.92139V11.5584H11.7427V23.2562C11.7427 23.4906 11.7167 23.7191 11.6691 23.94C11.3784 25.4638 10.0285 26.6171 8.40455 26.6171C6.66359 26.6171 5.23758 25.2919 5.09413 23.6052C5.08176 23.4904 5.0748 23.3741 5.0748 23.2562V23.1507H0V23.3212C0 27.8967 3.78208 31.6405 8.40444 31.6405C13.0269 31.6405 16.809 27.8967 16.809 23.3212V6.92139H8.42454Z" fill="white"/>
<path fill-rule="evenodd" clip-rule="evenodd" d="M50.873 24.4988V24.4964C47.3765 24.4701 44.55 21.6553 44.55 18.1857C44.55 14.6996 47.4029 11.8738 50.922 11.8738C54.4247 11.8738 57.2661 14.6737 57.2927 18.1372H62.2921C62.2656 11.9384 57.1858 6.92139 50.922 6.92139C44.6417 6.92139 39.5506 11.9646 39.5506 18.1857C39.5506 24.3905 44.6154 29.4225 50.873 29.4488V29.4512C52.7813 29.4655 54.4887 30.3116 55.6473 31.6405H61.41C59.7549 27.4726 55.6634 24.519 50.873 24.4988Z" fill="white"/>
<path fill-rule="evenodd" clip-rule="evenodd" d="M68.7675 9.05093V9.04852C66.8917 9.03435 65.2095 8.21469 64.0523 6.92139H58.2584C59.931 11.0645 64.0032 13.9945 68.7675 14.0146V14.017C72.2639 14.0433 75.0904 16.8659 75.0904 20.3451C75.0904 23.8407 72.2376 26.6743 68.7185 26.6743C65.2158 26.6743 62.3743 23.8668 62.3478 20.3938H57.3483C57.3749 26.6095 62.4546 31.6405 68.7185 31.6405C74.9987 31.6405 80.0899 26.5834 80.0899 20.3451C80.0899 14.1231 75.0251 9.0773 68.7675 9.05093Z" fill="white"/>
</g>
</svg>
